<mxfile host="app.diagrams.net" modified="2021-10-21T11:03:03.242Z" agent="5.0 (Macintosh; Intel Mac OS X 10_15_7) AppleWebKit/537.36 (KHTML, like Gecko) Chrome/86.0.4240.193 Safari/537.36" etag="cFBxUxy0lQWJsKjgmJmo" version="15.5.8" type="github">
  <diagram id="BMjZmmp2Z9qMncjS4KVn" name="Page-1">
    <mxGraphModel dx="1773" dy="536" grid="1" gridSize="10" guides="1" tooltips="1" connect="1" arrows="1" fold="1" page="1" pageScale="1" pageWidth="827" pageHeight="1169" math="0" shadow="0">
      <root>
        <mxCell id="0" />
        <mxCell id="1" parent="0" />
        <mxCell id="jmlZpMNFhIO9QPvZgJYT-7" style="edgeStyle=orthogonalEdgeStyle;rounded=0;orthogonalLoop=1;jettySize=auto;html=1;exitX=1;exitY=0.25;exitDx=0;exitDy=0;entryX=0;entryY=0.25;entryDx=0;entryDy=0;" edge="1" parent="1" source="jmlZpMNFhIO9QPvZgJYT-1" target="jmlZpMNFhIO9QPvZgJYT-6">
          <mxGeometry relative="1" as="geometry" />
        </mxCell>
        <mxCell id="jmlZpMNFhIO9QPvZgJYT-1" value="Client" style="rounded=1;whiteSpace=wrap;html=1;fillColor=#ffe6cc;strokeColor=#d79b00;" vertex="1" parent="1">
          <mxGeometry x="-40" y="190" width="120" height="60" as="geometry" />
        </mxCell>
        <mxCell id="jmlZpMNFhIO9QPvZgJYT-9" style="edgeStyle=orthogonalEdgeStyle;rounded=0;orthogonalLoop=1;jettySize=auto;html=1;exitX=1;exitY=0.25;exitDx=0;exitDy=0;entryX=0;entryY=0.25;entryDx=0;entryDy=0;" edge="1" parent="1" source="jmlZpMNFhIO9QPvZgJYT-2" target="jmlZpMNFhIO9QPvZgJYT-3">
          <mxGeometry relative="1" as="geometry" />
        </mxCell>
        <mxCell id="jmlZpMNFhIO9QPvZgJYT-15" style="edgeStyle=orthogonalEdgeStyle;rounded=0;orthogonalLoop=1;jettySize=auto;html=1;exitX=0;exitY=0.75;exitDx=0;exitDy=0;entryX=1;entryY=0.75;entryDx=0;entryDy=0;" edge="1" parent="1" source="jmlZpMNFhIO9QPvZgJYT-2" target="jmlZpMNFhIO9QPvZgJYT-6">
          <mxGeometry relative="1" as="geometry" />
        </mxCell>
        <mxCell id="jmlZpMNFhIO9QPvZgJYT-2" value="Client Stub" style="rounded=1;whiteSpace=wrap;html=1;fillColor=#ffe6cc;strokeColor=#d79b00;" vertex="1" parent="1">
          <mxGeometry x="260" y="190" width="120" height="60" as="geometry" />
        </mxCell>
        <mxCell id="jmlZpMNFhIO9QPvZgJYT-10" style="edgeStyle=orthogonalEdgeStyle;rounded=0;orthogonalLoop=1;jettySize=auto;html=1;exitX=1;exitY=0.25;exitDx=0;exitDy=0;entryX=0;entryY=0.25;entryDx=0;entryDy=0;" edge="1" parent="1" source="jmlZpMNFhIO9QPvZgJYT-3" target="jmlZpMNFhIO9QPvZgJYT-5">
          <mxGeometry relative="1" as="geometry" />
        </mxCell>
        <mxCell id="jmlZpMNFhIO9QPvZgJYT-14" style="edgeStyle=orthogonalEdgeStyle;rounded=0;orthogonalLoop=1;jettySize=auto;html=1;exitX=0;exitY=0.75;exitDx=0;exitDy=0;entryX=1;entryY=0.75;entryDx=0;entryDy=0;" edge="1" parent="1" source="jmlZpMNFhIO9QPvZgJYT-3" target="jmlZpMNFhIO9QPvZgJYT-2">
          <mxGeometry relative="1" as="geometry" />
        </mxCell>
        <mxCell id="jmlZpMNFhIO9QPvZgJYT-3" value="Server Stub" style="rounded=1;whiteSpace=wrap;html=1;fillColor=#dae8fc;strokeColor=#6c8ebf;" vertex="1" parent="1">
          <mxGeometry x="460" y="190" width="120" height="60" as="geometry" />
        </mxCell>
        <mxCell id="jmlZpMNFhIO9QPvZgJYT-12" style="edgeStyle=orthogonalEdgeStyle;rounded=0;orthogonalLoop=1;jettySize=auto;html=1;exitX=0;exitY=0.75;exitDx=0;exitDy=0;entryX=1;entryY=0.75;entryDx=0;entryDy=0;" edge="1" parent="1" source="jmlZpMNFhIO9QPvZgJYT-4" target="jmlZpMNFhIO9QPvZgJYT-5">
          <mxGeometry relative="1" as="geometry" />
        </mxCell>
        <mxCell id="jmlZpMNFhIO9QPvZgJYT-4" value="Server" style="rounded=1;whiteSpace=wrap;html=1;fillColor=#dae8fc;strokeColor=#6c8ebf;" vertex="1" parent="1">
          <mxGeometry x="750" y="190" width="120" height="60" as="geometry" />
        </mxCell>
        <mxCell id="jmlZpMNFhIO9QPvZgJYT-11" style="edgeStyle=orthogonalEdgeStyle;rounded=0;orthogonalLoop=1;jettySize=auto;html=1;exitX=1;exitY=0.25;exitDx=0;exitDy=0;entryX=0;entryY=0.25;entryDx=0;entryDy=0;" edge="1" parent="1" source="jmlZpMNFhIO9QPvZgJYT-5" target="jmlZpMNFhIO9QPvZgJYT-4">
          <mxGeometry relative="1" as="geometry" />
        </mxCell>
        <mxCell id="jmlZpMNFhIO9QPvZgJYT-13" style="edgeStyle=orthogonalEdgeStyle;rounded=0;orthogonalLoop=1;jettySize=auto;html=1;exitX=0;exitY=0.75;exitDx=0;exitDy=0;entryX=1;entryY=0.75;entryDx=0;entryDy=0;" edge="1" parent="1" source="jmlZpMNFhIO9QPvZgJYT-5" target="jmlZpMNFhIO9QPvZgJYT-3">
          <mxGeometry relative="1" as="geometry" />
        </mxCell>
        <mxCell id="jmlZpMNFhIO9QPvZgJYT-5" value="Dubbo Filter" style="rounded=1;whiteSpace=wrap;html=1;fillColor=#dae8fc;strokeColor=#6c8ebf;" vertex="1" parent="1">
          <mxGeometry x="610" y="190" width="120" height="60" as="geometry" />
        </mxCell>
        <mxCell id="jmlZpMNFhIO9QPvZgJYT-8" style="edgeStyle=orthogonalEdgeStyle;rounded=0;orthogonalLoop=1;jettySize=auto;html=1;exitX=1;exitY=0.25;exitDx=0;exitDy=0;entryX=0;entryY=0.25;entryDx=0;entryDy=0;" edge="1" parent="1" source="jmlZpMNFhIO9QPvZgJYT-6" target="jmlZpMNFhIO9QPvZgJYT-2">
          <mxGeometry relative="1" as="geometry" />
        </mxCell>
        <mxCell id="jmlZpMNFhIO9QPvZgJYT-16" style="edgeStyle=orthogonalEdgeStyle;rounded=0;orthogonalLoop=1;jettySize=auto;html=1;exitX=0;exitY=0.75;exitDx=0;exitDy=0;entryX=1;entryY=0.75;entryDx=0;entryDy=0;" edge="1" parent="1" source="jmlZpMNFhIO9QPvZgJYT-6" target="jmlZpMNFhIO9QPvZgJYT-1">
          <mxGeometry relative="1" as="geometry" />
        </mxCell>
        <mxCell id="jmlZpMNFhIO9QPvZgJYT-6" value="Dubbo Filter" style="rounded=1;whiteSpace=wrap;html=1;fillColor=#ffe6cc;strokeColor=#d79b00;" vertex="1" parent="1">
          <mxGeometry x="110" y="190" width="120" height="60" as="geometry" />
        </mxCell>
      </root>
    </mxGraphModel>
  </diagram>
</mxfile>
